<?xml version="1.0" encoding="UTF-8"?>
<svg id="a" data-name="Layer 1" xmlns="http://www.w3.org/2000/svg" width="361.85" height="361.85" viewBox="0 0 361.85 361.85">
  <path d="M302.35,211.11l-89.06-51.91c-20.17-11.81-45.34-11.81-65.51,0l-87.89,51.47c-12.81,7.44-12.81,25.66-.15,33.25l85.53,51.33c21.79,12.98,49.02,12.98,70.66,0l86.56-52.2c12.22-7.29,12.07-24.79-.15-31.93Z" fill="#acf3e3"/>
  <path d="M302.35,164.89l-89.06-51.91c-20.17-11.81-45.34-11.81-65.51,0l-87.89,51.47c-12.81,7.44-12.81,25.66-.15,33.25l85.53,51.33c21.79,12.98,49.02,12.98,70.66,0l86.56-52.2c12.22-7.29,12.07-24.79-.15-31.93Z" fill="#63baf8"/>
  <path d="M181.05,173.49c-42.4,0-76.99-18.81-76.99-41.99s34.59-41.99,76.99-41.99,76.99,18.81,76.99,41.99c-.15,22.89-34.45,41.99-76.99,41.99Z" fill="#fff"/>
  <path d="M302.35,117.64l-89.06-51.91c-20.17-11.81-45.34-11.81-65.51,0l-87.89,51.47c-12.81,7.44-12.81,25.66-.15,33.25l85.53,51.33c21.79,12.98,49.02,12.98,70.66,0l86.56-52.2c12.22-7.29,12.07-24.79-.15-31.93ZM181.04,170.43c-39.45,0-71.54-17.5-71.54-39.08s32.09-39.08,71.54-39.08,71.54,17.5,71.54,39.08c-.15,21.43-32.09,39.08-71.54,39.08Z" fill="#4b63d2"/>
  <path d="M181.04,162.69c34.39,0,62.27-14.1,62.27-31.5s-27.88-31.5-62.27-31.5-62.27,14.1-62.27,31.5,27.88,31.5,62.27,31.5Z" fill="#4b63d2"/>
</svg>