<svg id="Capa_1" data-name="Capa 1" xmlns="http://www.w3.org/2000/svg" viewBox="0 0 361.85 361.85"><defs><style>.cls-1{fill:#c41c6d;}</style></defs><path class="cls-1" d="M35.27,172.6v-8.48l28.2-37.5,4.43,5.18H37.22V120.1h39.6v8.4l-28,37.57-4.5-4.65H77.65V172.6Z"/><path class="cls-1" d="M105.7,173.35a22.29,22.29,0,0,1-11.06-2.7,20.56,20.56,0,0,1,0-36,24,24,0,0,1,22.12,0,20.06,20.06,0,0,1,7.61,7.35,21.79,21.79,0,0,1,0,21.3,20.06,20.06,0,0,1-7.61,7.35A22.32,22.32,0,0,1,105.7,173.35Zm-5.93-44.93L96.25,123l13.42-10.65,5.48,7.87ZM105.7,163a8.68,8.68,0,0,0,4.8-1.35,9.41,9.41,0,0,0,3.3-3.68,10.82,10.82,0,0,0,1.12-5.32,11.09,11.09,0,0,0-1.12-5.37,9.36,9.36,0,0,0-3.3-3.71,8.68,8.68,0,0,0-4.8-1.35,8.86,8.86,0,0,0-4.84,1.35,9.23,9.23,0,0,0-3.34,3.71,11.09,11.09,0,0,0-1.12,5.37A10.82,10.82,0,0,0,97.52,158a9.28,9.28,0,0,0,3.34,3.68A8.86,8.86,0,0,0,105.7,163Z"/><path class="cls-1" d="M160.15,173.35a29.38,29.38,0,0,1-10.92-2,25.58,25.58,0,0,1-8.66-5.63,24.82,24.82,0,0,1-5.66-8.62,29.32,29.32,0,0,1-2-11,27.37,27.37,0,0,1,2.1-10.8,26,26,0,0,1,14.59-14.25,29.49,29.49,0,0,1,11.06-2,28,28,0,0,1,7.35,1,25.22,25.22,0,0,1,6.71,2.89,22.38,22.38,0,0,1,5.37,4.54l-7.8,8.92a23.05,23.05,0,0,0-3.34-2.89,14.26,14.26,0,0,0-8.36-2.58,15,15,0,0,0-5.67,1.08,13.76,13.76,0,0,0-7.76,7.92,17.21,17.21,0,0,0-1.12,6.37,16.69,16.69,0,0,0,1.12,6.26,14.18,14.18,0,0,0,3.15,4.84,13.28,13.28,0,0,0,4.91,3.08,18.71,18.71,0,0,0,6.42,1.05,15.32,15.32,0,0,0,4.57-.68,16.46,16.46,0,0,0,4-1.84,16.74,16.74,0,0,0,3.27-2.66l6.15,9.75a17.81,17.81,0,0,1-5,3.75,30.07,30.07,0,0,1-6.9,2.59A31.84,31.84,0,0,1,160.15,173.35Z"/><path class="cls-1" d="M181.67,172.6l20.78-52.5h10.79l20.63,52.5H221L211.07,146c-.4-1.05-.8-2.17-1.2-3.37s-.8-2.44-1.2-3.72-.79-2.52-1.16-3.75-.69-2.36-.94-3.41l2.25-.07c-.3,1.25-.64,2.47-1,3.67s-.75,2.39-1.13,3.56-.78,2.36-1.23,3.53-.88,2.39-1.28,3.64l-9.9,26.55Zm9.9-10,4-9.6H219.7l3.89,9.6Z"/><path class="cls-1" d="M240.39,172.6V120.1h12.75v41.25h23.4V172.6Z"/><path class="cls-1" d="M308.49,173.35a28.57,28.57,0,0,1-10.94-2A25.84,25.84,0,0,1,283.22,157a30.14,30.14,0,0,1,0-21.75,25.81,25.81,0,0,1,14.33-14.33,30.28,30.28,0,0,1,21.75,0,26,26,0,0,1,8.62,5.7,25.42,25.42,0,0,1,5.66,8.63,30.6,30.6,0,0,1,0,21.71,25.26,25.26,0,0,1-5.66,8.66,26,26,0,0,1-8.62,5.7A28.31,28.31,0,0,1,308.49,173.35Zm-.07-12a14,14,0,0,0,5.66-1.13,13.15,13.15,0,0,0,4.5-3.19,14.68,14.68,0,0,0,3-4.83,18.26,18.26,0,0,0,0-12.15,14.83,14.83,0,0,0-3-4.84,13.15,13.15,0,0,0-4.5-3.19,14.86,14.86,0,0,0-11.32,0,13.6,13.6,0,0,0-4.54,3.19,13.85,13.85,0,0,0-3,4.84,17.46,17.46,0,0,0-1,6.07,17.77,17.77,0,0,0,1,6.11,13.33,13.33,0,0,0,3,4.84,13.89,13.89,0,0,0,10.2,4.28Z"/><path class="cls-1" d="M165.89,196.8,152,241.89a2,2,0,1,1-3.87-1.21l7-22.92c-5.49,2.6-14.15,3.29-20.9,4.22-3.75,12.18-4.91,19.34-12.13,21.3-12.87,3.52-21.42-19.8,9-24.94l6.93-22.23-5.49.46a2.06,2.06,0,0,1-.34-4.1c14.72-1.21,12.53-4.21,3.4,25.17,21.94-2.88,20.56-4.21,22.93-10.91.23-.69,4.21-14.09,4.67-14.61,1.56-1.9,3.41.12,4.91,1.33A2,2,0,0,1,165.89,196.8Zm-36.15,25.93c-5.25,1.09-11.6,3-14.2,7.91-2.89,5.42.93,9.93,5.49,8.66S126.4,233.47,129.74,222.73Z"/><path class="cls-1" d="M179.57,213.83c6.47,4.51-1.38,19.12-12.12,18.6-.87,10.27,11.26,8.25,16.34,1.44a10.17,10.17,0,0,0,1.79-3.7,2.05,2.05,0,0,1,4,1,13.93,13.93,0,0,1-2.6,5.42c-5.31,7-15.47,9.07-20.55,4.62C157,233.06,171.08,207.94,179.57,213.83Zm-2.08,6.82c2.31-7.34-6.69-2.26-9.29,7.68A11.09,11.09,0,0,0,177.49,220.65Z"/><path class="cls-1" d="M212.83,232.19l-1.62,5c-2.6,7.68-10.45,8.26-13.39,3.75-3.76,3.41-9.82,3.75-12.53.23-2.43-3.12-1.27-6.75-.35-9.76,3.81-12.24,4.21-15.7,9.35-17.72a7.23,7.23,0,0,1,8.2,1.9l.35-1a2,2,0,0,1,3.87,1.27c-.06.12-4.45,14-4.45,14-1.21,3.86-2.94,8.94.41,9.75,1.5.41,3.69-.75,4.67-3.69l1.62-5A2,2,0,1,1,212.83,232.19Zm-16.17,2.95c.69-3.46.92-4,3.47-12.18a2,2,0,0,1-.47-1.79c.93-4-2.36-4.28-3.86-3.64-3,1.15-3.12,2.77-6.88,14.84-.92,2.94-1.5,4.91-.4,6.29C190.08,240.68,195.91,239.3,196.66,235.14Z"/><path class="cls-1" d="M225.47,232.14l-1.33,4.21c-3.29,9.59-12.3,8.66-14.89,4-1.85-3.23-.81-7.79.23-11.43v-.06l11.37-36.31c.75-2.6,4.68-1.39,3.87,1.21L213.4,230.12c-.46,1.5-1.79,6.17-.63,8.25,1,1.68,5.43,2.77,7.5-3.23l1.28-4.22C222.35,228.38,226.28,229.6,225.47,232.14Z"/><path class="cls-1" d="M225.3,238.43c1,1.73,5.54,2.6,7.44-3.23l1.33-4.28a2.06,2.06,0,0,1,3.93,1.22l-1.33,4.27c-3.12,9.41-12.24,8.72-14.9,4-1.78-3.17-.86-8,.24-11.49l5.65-18.07H225.3a2.05,2.05,0,0,1,0-4.1h3.63l4.39-14.09a2,2,0,0,1,3.87,1.21l-4,12.88h4.27a2.05,2.05,0,0,1,0,4.1h-5.54L226,230.12C225.41,232.19,224.14,236.35,225.3,238.43Z"/><path class="cls-1" d="M262.07,232.19l-1.44,4.86c-2.31,8.08-11,8.14-13.62,3.46-3.93-7.16,8-22.52-.29-20.79-2.6.52-5.08,4.16-6.87,6.87-5.14,16.34-4.8,17-6.82,17a2,2,0,0,1-2-2.66l15-48.1a2,2,0,1,1,3.87,1.22L242.79,217c3-1.91,7-2.25,9.3.35,5.71,6.29-6.47,20.49-.06,22.11,4,1,4.91-4.39,6.12-8.43C259,228.44,262.88,229.65,262.07,232.19Z"/></svg>