<svg id="Capa_1" data-name="Capa 1" xmlns="http://www.w3.org/2000/svg" viewBox="0 0 358.2 358.2"><defs><style>.cls-1{fill:#c41c6d;}</style></defs><path class="cls-1" d="M80.58,197.13V178.51l62-82.39,9.72,11.37H84.87V81.79h87v18.45l-61.63,82.55-9.88-10.21h73.32v24.55Z"/><path class="cls-1" d="M280.84,167.43l-31.13,100.9c-1.68,5.82-10.47,3.1-8.66-2.71l15.76-51.29c-12.27,5.81-31.65,7.36-46.76,9.43-8.4,27.26-11,43.28-27.14,47.67-28.81,7.88-47.93-44.31,20.16-55.81l15.5-49.74-12.27,1c-6.2.39-6.72-8.65-.78-9.17,32.95-2.71,28-9.43,7.63,56.33,49.09-6.46,46-9.43,51.29-24.42.51-1.55,9.43-31.52,10.46-32.68,3.49-4.27,7.62.26,11,3C289.89,163.3,285.88,170,280.84,167.43Zm-80.87,58c-11.76,2.45-26,6.72-31.78,17.7-6.46,12.14,2.06,22.22,12.27,19.38S192.47,249.47,200,225.44Z"/></svg>